<svg xmlns="http://www.w3.org/2000/svg" width="871" height="491" fill="none">
<path stroke="#FFB200" stroke-dasharray="10 10" stroke-width="5" d="M870 227.5c-50-7.65-94.5-2-133 16-42.917 20.065-58.054 64.65-58.054 116.15s-52.001 128-106.501 128c-54.5 0-80-29.5-80-89.5 0-75-44.499-64-78.999-98.5-27.6-27.6-11.5-57.833 0-69.5-17.334-3.333-52.001-19.4-52.001-57 0-47 44-56 44-91s-11.499-42.5 8.001-62c15.599-15.6 36.499-17.833 44.999-17h-107.5c-44.5 0-85.5 22-114 57S156.5 145 130.5 166s-77.554 25.65-106.554-3.35c-23.2-23.2-26.5-66.166-13-80.5"/></svg>