<svg xmlns="http://www.w3.org/2000/svg" width="47" height="47" fill="none"><path fill="#2F2100" d="M40 39.5 42.5 29 38 25v-8.5L36.5 9h-21l-6 1.5V25l-5 4L8 41.5h12.5l9.5 2 10-4Z"/><path fill="#FFB200" fill-rule="evenodd" d="M24 0a3 3 0 0 1 3 3v3h6.857a7.22 7.22 0 0 1 5.013 2.013A6.931 6.931 0 0 1 41 13v11.169l2.227.999a3 3 0 0 1 1.772 2.715c.026 3.43-.596 6.82-1.818 9.994l.075.035c1.128.532 1.985 1.23 2.572 1.708l.065.052a3 3 0 0 1-3.785 4.656c-.642-.522-.994-.792-1.413-.99a3.206 3.206 0 0 0-.794-.252 3 3 0 0 1-2.296.069c-.192.054-.356.12-.5.187-.45.21-.84.5-1.51 1.023l-.065.051c-.609.476-1.478 1.156-2.59 1.676-1.213.568-2.61.908-4.315.908-1.738 0-3.154-.333-4.381-.912-1.128-.532-1.985-1.23-2.572-1.708l-.064-.052c-.642-.522-.994-.792-1.413-.99-.361-.17-.893-.338-1.82-.338-.857 0-1.382.16-1.77.342-.45.21-.84.5-1.51 1.023l-.065.051c-.444.347-1.025.802-1.738 1.224a3 3 0 0 1-3.399 1.227c-.551.087-1.139.133-1.768.133-1.738 0-3.154-.333-4.381-.912-1.128-.532-1.985-1.23-2.572-1.708l-.064-.052a3 3 0 0 1 3.214-5.022 27.247 27.247 0 0 1-2.318-11.45 3 3 0 0 1 1.772-2.688L6 24.17V13c0-1.891.78-3.683 2.13-4.987A7.22 7.22 0 0 1 13.143 6H21V3a3 3 0 0 1 3-3ZM11.32 39.7c.028-.02.056-.043.084-.065l.066-.051c.61-.476 1.479-1.156 2.59-1.676 1.213-.568 2.61-.908 4.315-.908 1.738 0 3.154.333 4.381.912 1.128.532 1.985 1.23 2.572 1.708l.065.052c.642.522.993.792 1.412.99.361.17.893.338 1.82.338.857 0 1.382-.16 1.77-.342.45-.21.84-.5 1.51-1.023l.065-.051c.61-.476 1.479-1.156 2.59-1.676.727-.34 1.52-.6 2.407-.752a21.233 21.233 0 0 0 1.962-7.34L27 24.466V28a3 3 0 1 1-6 0v-3.982L8.055 29.824a21.21 21.21 0 0 0 3.265 9.877ZM35 13v8.478l-8.603-3.858a7.076 7.076 0 0 0-1.477-.476 2.997 2.997 0 0 0-1.118-.138 7.078 7.078 0 0 0-3.197.613L12 21.48V13c0-.23.094-.474.297-.67.207-.2.51-.33.846-.33h20.714c.337 0 .639.13.846.33.203.196.297.44.297.67Z" clip-rule="evenodd"/></svg>